<svg xmlns="http://www.w3.org/2000/svg" viewBox="0 0 24 24" width="32" height="32" fill="none" stroke="#F97316" stroke-width="1.75" stroke-linecap="round" stroke-linejoin="round">
  <!-- Beaver Ears -->
  <path d="M6.5 7 A 2 2 0 1 1 9.5 4.5" />
  <path d="M14.5 4.5 A 2 2 0 1 1 17.5 7" />

  <!-- Beaver Head (peeking over the board) -->
  <path d="M17.5 14 C17.5 8 15 4.5 12 4.5 C9 4.5 6.5 8 6.5 14" />

  <!-- Eyes -->
  <circle cx="9.5" cy="9.5" r="1.2" fill="#F97316" stroke="none" />
  <circle cx="14.5" cy="9.5" r="1.2" fill="#F97316" stroke="none" />

  <!-- Nose -->
  <path d="M10.5 12 h3 l-1.5 2 z" fill="#F97316" stroke="none" />

  <!-- Tiny Paws resting on the board -->
  <path d="M5.5 14 v-1.5 a1.5 1.5 0 0 1 3 0 v1.5" />
  <path d="M15.5 14 v-1.5 a1.5 1.5 0 0 1 3 0 v1.5" />

  <!-- The Kanban Board (His "Dam") -->
  <rect x="2" y="14" width="20" height="8" rx="1.5" fill="#09090B" />
  <path d="M8.5 14 v8 M15.5 14 v8" /> <!-- Column dividers -->

  <!-- Kanban Cards on the board -->
  <rect x="4" y="16.5" width="3" height="3.5" rx="0.5" fill="#F97316" stroke="none" />
  <rect x="10" y="16" width="4" height="2" rx="0.5" fill="#F97316" stroke="none" />
  <rect x="10" y="19" width="4" height="1.5" rx="0.5" fill="#F97316" stroke="none" />
  <rect x="17" y="17.5" width="3" height="2" rx="0.5" fill="#F59E0B" stroke="none" />

  <!-- AI Sparkle / Star (AI Agents logic) -->
  <path d="M20 1 Q20 3.5 22.5 3.5 Q20 3.5 20 6 Q20 3.5 17.5 3.5 Q20 3.5 20 1 Z" fill="#F97316" stroke="none" />
</svg>
